<svg width="128" height="128" viewBox="0 0 120 120" fill="none" xmlns="http://www.w3.org/2000/svg">
<path fill-rule="evenodd" clip-rule="evenodd" d="M66.5 27H105.5C108.814 27 111.5 29.6863 111.5 33V102.5C111.5 105.814 108.814 108.5 105.5 108.5H74.5L86.5 92.5L84.0266 84.3996C84.4131 84.4249 84.8052 84.4375 85.2031 84.4375C87.2167 84.4375 89.0873 84.1115 90.8147 83.4596L93.3906 86.625H99.7031L95.117 80.8757C96.3396 79.7864 97.3683 78.4633 98.2031 76.9062C99.526 74.4583 100.188 71.4896 100.188 68C100.188 64.5104 99.526 61.5417 98.2031 59.0938C96.8906 56.6458 95.099 54.7812 92.8281 53.5C90.5677 52.2083 88.026 51.5625 85.2031 51.5625C82.3594 51.5625 79.8073 52.2083 77.5469 53.5C76.6691 53.9975 75.8628 54.5831 75.1279 55.2565L66.5 27ZM82.0243 77.8422L77.6445 63.4983C77.7686 63.0709 77.9132 62.6653 78.0781 62.2812C78.7552 60.7292 79.7031 59.5521 80.9219 58.75C82.1406 57.9479 83.5677 57.5469 85.2031 57.5469C86.8385 57.5469 88.2656 57.9479 89.4844 58.75C90.7031 59.5521 91.6458 60.7292 92.3125 62.2812C92.9896 63.8333 93.3281 65.7396 93.3281 68C93.3281 70.2604 92.9896 72.1667 92.3125 73.7188C91.9493 74.5642 91.5043 75.2984 90.9773 75.9213L88.6094 72.875H82.8594L86.9605 78.2828C86.4042 78.3964 85.8184 78.4531 85.2031 78.4531C84.0377 78.4531 82.9781 78.2495 82.0243 77.8422Z" fill="url(#paint0_linear_17_2)"/>
<path d="M71.5 105L81 92H63L71.5 105Z" fill="#533A9E"/>
<path fill-rule="evenodd" clip-rule="evenodd" d="M56 11.5H17C13.6863 11.5 11 14.1863 11 17.5V82C11 85.3137 13.6863 88 17 88H80L56 11.5ZM40.6875 48.8835V36.9091H34.7216V48.8835H31.6392L25.1051 36.9091H17.5341L26.2699 50.6591L17.1506 66H24.4375L30.7443 54.5653H34.7216V66H40.6875V54.5653H44.7642L50.9148 66H58.2585L49.3097 50.6164L57.8324 36.9091H50.2898L43.9261 48.8835H40.6875Z" fill="url(#paint1_linear_17_2)"/>
<defs>
<linearGradient id="paint0_linear_17_2" x1="110" y1="66" x2="85.5" y2="68" gradientUnits="userSpaceOnUse">
<stop stop-color="#6E4ECA"/>
<stop offset="1" stop-color="#543A9E"/>
</linearGradient>
<linearGradient id="paint1_linear_17_2" x1="11" y1="47.5" x2="74.5" y2="47.5" gradientUnits="userSpaceOnUse">
<stop stop-color="#402C7A"/>
<stop offset="1" stop-color="#6E4ECA"/>
</linearGradient>
</defs>
</svg>
