<svg width="128" height="128" viewBox="0 0 120 120" fill="none" xmlns="http://www.w3.org/2000/svg">
<path d="M72.7 43L113 47.8696V92.4783L88.9 96L72.7 43Z" fill="white"/>
<path fill-rule="evenodd" clip-rule="evenodd" d="M66 21H111.933C115.836 21 119 24.1642 119 28.0675V109.933C119 113.836 115.836 117 111.933 117H75.4222L89.5556 98.1534L86.6424 88.6118C87.0977 88.6416 87.5595 88.6564 88.0281 88.6564C90.1378 88.6564 92.1142 88.3526 93.9572 87.7449C94.3663 87.61 94.8205 87.7303 95.0919 88.0647L98.9778 92.8528H106.633L100.931 85.9462C100.246 85.117 100.351 83.9024 101.061 83.0949C101.922 82.1149 102.682 81.0117 103.339 79.7852C104.897 76.9018 105.677 73.4049 105.677 69.2945C105.677 65.184 104.897 61.6872 103.339 58.8037C101.793 55.9202 99.6833 53.7239 97.0087 52.2147C94.3464 50.6932 91.3528 49.9325 88.0281 49.9325C84.6789 49.9325 81.673 50.6932 79.0108 52.2147C77.9769 52.8007 77.0273 53.4905 76.1617 54.2837L66 21ZM84.2842 80.8877L79.1257 63.9919C79.2719 63.4884 79.4422 63.0107 79.6364 62.5582C80.4339 60.7301 81.5503 59.3436 82.9858 58.3988C84.4211 57.454 86.102 56.9816 88.0281 56.9816C89.9542 56.9816 91.635 57.454 93.0705 58.3988C94.5059 59.3436 95.6162 60.7301 96.4014 62.5582C97.1989 64.3865 97.5975 66.6319 97.5975 69.2945C97.5975 71.957 97.1989 74.2025 96.4014 76.0307C96.152 76.6112 95.8699 77.1472 95.5551 77.6386C95.2135 78.1716 94.4624 78.1591 94.071 77.6615L90.7333 73.4172L84.2556 74.0061L88.8072 79.7718C89.3992 80.5217 88.9835 81.6073 88.0281 81.6073V81.6073C86.6555 81.6073 85.4075 81.3675 84.2842 80.8877Z" fill="url(#paint0_linear_37_121)"/>
<path d="M71.9167 113L83 97H62L71.9167 113Z" fill="#533A9E"/>
<rect x="6" y="25" width="53" height="47" fill="white"/>
<path fill-rule="evenodd" clip-rule="evenodd" d="M54.1739 3H8.95652C5.11455 3 2 6.16035 2 10.0588V85.9412C2 89.8397 5.11455 93 8.95652 93H82L54.1739 3ZM38.4203 46.9806C37.3157 46.9806 36.4203 46.0852 36.4203 44.9806V29.4706H29.5033V44.9806C29.5033 46.0852 28.6079 46.9806 27.5033 46.9806H27.1915C26.4205 46.9806 25.7182 46.5374 25.3863 45.8414L17.5797 29.4706H9.13113L18.668 47.1487C19.3139 48.3459 19.307 49.7894 18.6497 50.9804L7.7971 70.6471H15.913L24.3288 54.7302C24.6752 54.075 25.3556 53.6651 26.0968 53.6651H27.5033C28.6079 53.6651 29.5033 54.5605 29.5033 55.6651V70.6471H36.4203V55.6651C36.4203 54.5605 37.3157 53.6651 38.4203 53.6651H39.9414C40.6829 53.6651 41.3636 54.0753 41.7099 54.731L50.1159 70.6471H58.2319L47.5196 51.0376C46.837 49.788 46.8701 48.2697 47.6066 47.051L58.2319 29.4706H50.6957L40.758 46.0106C40.3964 46.6124 39.7457 46.9806 39.0436 46.9806H38.4203Z" fill="url(#paint1_linear_37_121)"/>
<defs>
<linearGradient id="paint0_linear_37_121" x1="117.233" y1="66.9387" x2="88.3777" y2="69.2939" gradientUnits="userSpaceOnUse">
<stop stop-color="#6E4ECA"/>
<stop offset="1" stop-color="#543A9E"/>
</linearGradient>
<linearGradient id="paint1_linear_37_121" x1="2" y1="45.3529" x2="75.6232" y2="45.3529" gradientUnits="userSpaceOnUse">
<stop stop-color="#402C7A"/>
<stop offset="1" stop-color="#6E4ECA"/>
</linearGradient>
</defs>
</svg>
